<?xml version="1.0" standalone="no"?>
<!DOCTYPE svg PUBLIC "-//W3C//DTD SVG 20010904//EN"
 "http://www.w3.org/TR/2001/REC-SVG-20010904/DTD/svg10.dtd">
<svg version="1.0" xmlns="http://www.w3.org/2000/svg"
 width="1005.000000pt" height="284.000000pt" viewBox="0 0 1005.000000 284.000000"
 preserveAspectRatio="xMidYMid meet">
<metadata>
Created by potrace 1.16, written by Peter Selinger 2001-2019
</metadata>
<g transform="translate(0.000000,284.000000) scale(0.100000,-0.100000)"
fill="#000000" stroke="none">
    <path d="M256 2818 c50 -59 241 -255 355 -364 500 -477 1014 -823 1385 -933
198 -58 581 -102 1184 -133 320 -17 2218 -16 2570 1 135 6 493 14 795 18 692
7 1230 -11 1505 -52 579 -86 1128 -352 1671 -812 174 -146 319 -277 319 -288
0 -15 -154 -245 -165 -245 -12 0 -65 44 -251 207 -613 539 -1164 800 -1799
852 -406 33 -1496 39 -2080 11 -351 -16 -1783 -24 -2210 -11 -851 25 -1339 72
-1627 156 -475 138 -1084 566 -1705 1198 l-203 207 0 -1315 0 -1315 5025 0
5025 0 0 1420 0 1420 -4907 0 -4906 0 19 -22z"/>
</g>
</svg>
